<svg id="Calendar" xmlns="http://www.w3.org/2000/svg" width="14.986" height="16.484" viewBox="0 0 14.986 16.484">
  <path id="Vector" d="M7.493,13.487a.749.749,0,1,0-.53-.219A.749.749,0,0,0,7.493,13.487Zm3.746,0a.749.749,0,1,0-.53-.219A.749.749,0,0,0,11.239,13.487Zm0-3a.749.749,0,1,0-.53-.219A.749.749,0,0,0,11.239,10.49Zm-3.746,0a.749.749,0,1,0-.53-.219A.749.749,0,0,0,7.493,10.49ZM12.738,1.5h-.749V.749a.749.749,0,1,0-1.5,0V1.5H4.5V.749a.749.749,0,0,0-1.5,0V1.5H2.248A2.248,2.248,0,0,0,0,3.746v10.49a2.248,2.248,0,0,0,2.248,2.248h10.49a2.248,2.248,0,0,0,2.248-2.248V3.746A2.248,2.248,0,0,0,12.738,1.5Zm.749,12.738a.749.749,0,0,1-.749.749H2.248a.749.749,0,0,1-.749-.749V7.493H13.487Zm0-8.242H1.5V3.746A.749.749,0,0,1,2.248,3H3v.749a.749.749,0,0,0,1.5,0V3H10.49v.749a.749.749,0,1,0,1.5,0V3h.749a.749.749,0,0,1,.749.749Zm-9.741,4.5a.749.749,0,1,0-.53-.219A.749.749,0,0,0,3.746,10.49Zm0,3a.749.749,0,1,0-.53-.219A.749.749,0,0,0,3.746,13.487Z" transform="translate(0 0)" fill="#00043d"/>
</svg>
