<svg id="Flight" xmlns="http://www.w3.org/2000/svg" width="21.587" height="18.125" viewBox="0 0 21.587 18.125">
  <path id="Layer_2" data-name="Layer 2" d="M3.181,8.269a2.113,2.113,0,0,0-2.248.12A2.113,2.113,0,0,0,0,10.27,2.143,2.143,0,0,0,1.12,12.061L5,14.181a1.251,1.251,0,0,0,1.326-.075l3.454-2.4L9.355,15.35a2.51,2.51,0,0,0,4.938.847L16.331,7.16,20.594,4.2a2.285,2.285,0,0,0,.982-1.678A2.315,2.315,0,0,0,20.931.679a2.375,2.375,0,0,0-3.05-.232L13.738,3.3,4.8,2.253a2.248,2.248,0,0,0-2.023.869A2.2,2.2,0,0,0,3.938,6.569L7.564,7.6,5.092,9.311ZM4.335,5.13a.712.712,0,0,1,.277-1.386l7.268.824L9.145,6.494Zm1.5,5.492,12.91-8.991a.884.884,0,0,1,1.116.045.832.832,0,0,1,.232.659.817.817,0,0,1-.345.592L15,6.216l-2.173,9.636a1.012,1.012,0,0,1-.989.794,1.027,1.027,0,0,1-1-1.131l.817-6.946L5.594,12.81,1.847,10.757a.644.644,0,0,1-.345-.539.667.667,0,0,1,.3-.6.644.644,0,0,1,.682,0L4.5,10.7a1.251,1.251,0,0,0,1.326-.075Z" transform="translate(0 0)" fill="#00043d"/>
</svg>
