<svg id="Hotel" xmlns="http://www.w3.org/2000/svg" width="20.98" height="20.98" viewBox="0 0 20.98 20.98">
  <path id="Vector" d="M3,5.994H1.5A1.5,1.5,0,0,0,0,7.493v1.5a1.5,1.5,0,0,0,1.5,1.5H3a1.5,1.5,0,0,0,1.5-1.5v-1.5A1.5,1.5,0,0,0,3,5.994Zm0,3H1.5v-1.5H3Zm5.994-3h-1.5a1.5,1.5,0,0,0-1.5,1.5v1.5a1.5,1.5,0,0,0,1.5,1.5h1.5a1.5,1.5,0,0,0,1.5-1.5v-1.5a1.5,1.5,0,0,0-1.5-1.5Zm0,3h-1.5v-1.5h1.5ZM3,0H1.5A1.5,1.5,0,0,0,0,1.5V3A1.5,1.5,0,0,0,1.5,4.5H3A1.5,1.5,0,0,0,4.5,3V1.5A1.5,1.5,0,0,0,3,0ZM3,3H1.5V1.5H3ZM8.991,0h-1.5a1.5,1.5,0,0,0-1.5,1.5V3a1.5,1.5,0,0,0,1.5,1.5h1.5A1.5,1.5,0,0,0,10.49,3V1.5A1.5,1.5,0,0,0,8.991,0Zm0,3h-1.5V1.5h1.5Z" transform="translate(5.245 2.997)" fill="#6e6e6e"/>
  <path id="Vector-2" data-name="Vector" d="M20.231,19.481h-1.5V3.746A3.746,3.746,0,0,0,14.986,0H5.994A3.746,3.746,0,0,0,2.248,3.746V19.481H.749a.749.749,0,0,0,0,1.5H20.231a.749.749,0,0,0,0-1.5Zm-11.239,0V17.234a.749.749,0,0,1,.749-.749h1.5a.749.749,0,0,1,.749.749v2.248Zm4.5,0V17.234a2.248,2.248,0,0,0-2.248-2.248h-1.5a2.248,2.248,0,0,0-2.248,2.248v2.248H3.746V3.746A2.248,2.248,0,0,1,5.994,1.5h8.991a2.248,2.248,0,0,1,2.248,2.248V19.481Z" transform="translate(0 0)" fill="#6e6e6e"/>
</svg>
