<?xml version="1.0" standalone="no"?>
<!DOCTYPE svg PUBLIC "-//W3C//DTD SVG 20010904//EN"
 "http://www.w3.org/TR/2001/REC-SVG-20010904/DTD/svg10.dtd">
<svg version="1.0" xmlns="http://www.w3.org/2000/svg"
 width="64.000000pt" height="64.000000pt" viewBox="0 0 64.000000 64.000000"
 preserveAspectRatio="xMidYMid meet">

<g transform="translate(0.000000,64.000000) scale(0.100000,-0.100000)"
fill="#000000" stroke="none">
<path d="M184 567 c-2 -7 14 -52 36 -100 22 -48 40 -90 40 -92 0 -3 -26 -5
-58 -5 -54 0 -61 3 -89 35 -21 23 -40 35 -57 35 -35 0 -39 -15 -22 -73 12 -41
12 -53 0 -94 -18 -59 -13 -73 24 -73 22 0 37 9 56 35 26 33 30 35 87 35 32 0
59 -2 59 -5 0 -2 -18 -44 -40 -92 -22 -48 -38 -93 -36 -100 3 -7 18 -13 34
-13 25 0 42 15 111 99 l82 99 83 3 c88 4 126 22 126 59 0 37 -38 55 -126 59
l-83 3 -82 99 c-69 84 -86 99 -111 99 -16 0 -31 -6 -34 -13z"/>
</g>
</svg>
