<svg xmlns="http://www.w3.org/2000/svg" width="13.999" height="14" viewBox="0 0 13.999 14">
  <path id="Path_14" data-name="Path 14" d="M14.87-5.25a2.834,2.834,0,0,0-1.281-2.372,2.824,2.824,0,0,0-.769-2.577,2.825,2.825,0,0,0-2.58-.772A2.869,2.869,0,0,0,7.87-12.25a2.924,2.924,0,0,0-2.4,1.278A2.8,2.8,0,0,0,2.92-10.2a2.825,2.825,0,0,0-.774,2.579A2.834,2.834,0,0,0,.871-5.25,2.845,2.845,0,0,0,2.146-2.878,2.83,2.83,0,0,0,2.92-.3,2.809,2.809,0,0,0,5.494.472,2.845,2.845,0,0,0,7.87,1.75,2.835,2.835,0,0,0,10.239.472,2.829,2.829,0,0,0,12.819-.3a2.818,2.818,0,0,0,.769-2.577A2.834,2.834,0,0,0,14.87-5.25ZM10.5-6.341,7.44-3.279A.516.516,0,0,1,7-3.062a.656.656,0,0,1-.464-.192L5.223-4.567a.656.656,0,0,1,0-.928.656.656,0,0,1,.928,0L7-4.646l2.6-2.6a.656.656,0,0,1,.928,0A.608.608,0,0,1,10.5-6.341Z" transform="translate(-0.871 12.25)" fill="#1f0"/>
</svg>
