<svg version="1.2" xmlns="http://www.w3.org/2000/svg" viewBox="0 0 14 14" width="14" height="14">
	<title>verified-green-svg</title>
	<style>
		.s0 { fill: #a8a8a8 } 
	</style>
	<path id="Path_14" fill-rule="evenodd" class="s0" d="m13.9 7.7q-0.1 0.3-0.2 0.6-0.2 0.4-0.4 0.6-0.3 0.3-0.6 0.5 0.1 0.3 0.1 0.7 0 0.3-0.1 0.7-0.1 0.3-0.3 0.6-0.2 0.3-0.5 0.5-0.2 0.3-0.5 0.5-0.3 0.2-0.6 0.3-0.4 0.1-0.7 0.1-0.4 0-0.7-0.1-0.2 0.3-0.5 0.6-0.2 0.2-0.6 0.4-0.3 0.1-0.6 0.2-0.3 0.1-0.7 0.1-0.4 0-0.7-0.1-0.3-0.1-0.7-0.2-0.3-0.2-0.5-0.4-0.3-0.3-0.5-0.6-0.3 0.1-0.7 0.1-0.3 0-0.7-0.1-0.3-0.1-0.6-0.3-0.3-0.2-0.6-0.4-0.2-0.3-0.4-0.6-0.2-0.3-0.3-0.6-0.1-0.4-0.1-0.7 0-0.4 0.1-0.7-0.3-0.2-0.6-0.5-0.2-0.2-0.4-0.6-0.1-0.3-0.2-0.6-0.1-0.3-0.1-0.7 0-0.4 0.1-0.7 0.1-0.3 0.2-0.6 0.2-0.4 0.4-0.6 0.3-0.3 0.6-0.5-0.1-0.3-0.1-0.7 0-0.3 0.1-0.7 0.1-0.3 0.3-0.6 0.2-0.3 0.4-0.5 0.3-0.3 0.6-0.5 0.3-0.2 0.6-0.3 0.4-0.1 0.7-0.1 0.4 0 0.7 0.1 0.2-0.3 0.5-0.6 0.2-0.2 0.5-0.4 0.4-0.1 0.7-0.2 0.3-0.1 0.7-0.1 0.4 0 0.7 0.1 0.3 0.1 0.6 0.2 0.4 0.2 0.6 0.4 0.3 0.3 0.5 0.6 0.3-0.1 0.7-0.1 0.3 0 0.7 0.1 0.3 0.1 0.6 0.3 0.3 0.2 0.5 0.5 0.3 0.2 0.5 0.5 0.2 0.3 0.3 0.6 0.1 0.4 0.1 0.7 0 0.4-0.1 0.7 0.3 0.2 0.6 0.5 0.2 0.2 0.4 0.6 0.1 0.3 0.2 0.6 0.1 0.3 0.1 0.7 0 0.4-0.1 0.7zm-4.1-2q0-0.1 0-0.2 0-0.2 0-0.3 0-0.1-0.1-0.2-0.1-0.1-0.3-0.1-0.1-0.1-0.2-0.1-0.1 0-0.3 0.1-0.1 0-0.2 0.1l-2.6 2.6-0.8-0.8q-0.1-0.1-0.2-0.2-0.2 0-0.3 0-0.1 0-0.2 0-0.2 0.1-0.2 0.2-0.1 0-0.2 0.2 0 0.1 0 0.2 0 0.1 0 0.3 0.1 0.1 0.2 0.2l1.3 1.3q0 0 0.1 0.1 0 0 0.1 0 0 0.1 0.1 0.1 0.1 0 0.1 0 0.1 0 0.2 0 0 0 0.1-0.1 0 0 0.1 0 0-0.1 0.1-0.1l3-3.1q0.1-0.1 0.2-0.2z"/>
</svg>